<svg xmlns="http://www.w3.org/2000/svg" width="310" height="310" viewBox="0 0 310 310">
<g>
<path d="M 168.70 239.80 C165.43,242.98 160.79,244.08 159.50,242.00 C159.16,241.45 156.27,241.00 153.08,241.00 C145.10,241.00 142.00,238.60 142.00,232.43 C142.00,227.66 141.45,227.20 138.44,229.47 C137.37,230.28 135.57,230.95 134.44,230.97 C133.31,230.99 131.51,231.66 130.44,232.47 C129.37,233.28 127.13,233.95 125.45,233.97 C123.77,233.99 121.92,234.48 121.33,235.07 C120.13,236.27 104.81,235.79 96.38,234.30 C90.23,233.21 69.91,223.60 66.84,220.33 C65.64,219.05 64.18,218.00 63.60,218.00 C62.29,218.00 48.00,203.90 48.00,202.60 C48.00,202.08 47.36,200.95 46.57,200.08 C44.41,197.68 37.00,182.79 37.00,180.84 C37.00,179.89 36.61,178.88 36.13,178.58 C34.98,177.87 33.71,172.20 33.94,168.85 C34.05,167.39 33.65,165.90 33.06,165.54 C31.68,164.68 31.67,150.32 33.05,149.47 C33.63,149.11 34.07,146.05 34.03,142.66 C33.95,135.06 36.37,122.51 38.12,121.43 C38.60,121.13 39.04,119.90 39.08,118.69 C39.12,117.49 40.46,114.47 42.06,112.00 C43.65,109.53 45.37,106.58 45.88,105.46 C46.38,104.34 47.51,102.82 48.40,102.09 C49.28,101.35 50.00,100.38 50.00,99.92 C50.00,95.99 67.89,77.57 74.75,74.43 C77.67,73.09 80.31,72.00 80.61,72.00 C80.91,72.00 83.63,70.36 86.64,68.36 C92.76,64.30 98.15,62.11 102.19,62.04 C103.67,62.02 105.16,61.55 105.50,61.00 C106.25,59.78 112.67,59.66 113.41,60.86 C113.70,61.33 117.67,61.97 122.22,62.29 C129.69,62.81 131.37,63.34 139.34,67.68 C144.20,70.33 149.86,73.41 151.92,74.52 C153.97,75.63 157.02,77.65 158.69,79.02 C160.36,80.38 162.80,82.18 164.11,83.00 C165.42,83.82 172.45,90.32 179.72,97.42 C192.37,109.79 193.05,110.30 195.52,109.17 C196.93,108.53 199.17,108.00 200.49,108.00 C201.80,108.00 203.16,107.55 203.50,107.00 C203.84,106.45 206.96,106.00 210.44,106.00 C214.83,106.00 217.13,105.54 218.00,104.50 C218.78,103.56 220.98,103.00 223.92,103.00 C226.50,103.00 229.14,102.46 229.80,101.80 C230.73,100.87 231.27,100.87 232.20,101.80 C232.86,102.46 235.94,103.00 239.05,103.00 C243.48,103.00 245.44,103.54 248.10,105.47 C249.97,106.82 252.62,108.69 254.00,109.61 C255.38,110.53 257.72,112.12 259.21,113.14 C260.70,114.16 262.32,115.00 262.80,115.00 C263.29,115.00 264.50,115.90 265.50,117.00 C266.50,118.10 267.83,119.00 268.47,119.00 C269.88,119.00 275.00,124.21 275.00,125.65 C275.00,126.22 275.95,127.55 277.11,128.60 C280.14,131.33 287.00,145.42 287.00,148.92 C287.00,150.55 287.45,152.16 288.00,152.50 C288.55,152.84 289.00,156.28 289.00,160.14 C289.00,166.60 288.76,167.39 286.01,170.14 C284.37,171.79 281.62,173.53 279.92,174.02 C276.63,174.97 271.32,174.32 270.42,172.87 C270.12,172.39 269.02,172.00 267.96,172.00 C266.09,172.00 266.09,172.10 268.10,175.68 C269.74,178.59 270.17,181.10 270.15,187.60 C270.13,195.74 269.39,198.27 265.78,202.54 C263.57,205.14 262.97,209.61 264.88,209.21 C268.40,208.46 271.55,215.05 268.92,217.68 C268.14,218.46 268.18,219.31 269.05,220.71 C270.61,223.21 268.11,227.36 263.60,229.74 C258.14,232.64 245.35,234.00 238.00,232.48 C233.76,231.60 232.08,230.35 230.88,227.18 C230.07,225.05 229.55,224.86 226.23,225.46 C224.18,225.83 219.13,226.44 215.01,226.81 C208.59,227.40 207.47,227.79 207.17,229.50 C206.61,232.62 199.94,238.92 196.03,240.01 C191.16,241.36 183.65,241.25 182.20,239.80 C180.79,238.39 180.58,230.83 181.91,229.45 C182.42,228.93 182.98,227.38 183.16,226.00 C183.47,223.75 183.11,223.47 179.65,223.18 C177.51,223.01 174.27,223.59 172.37,224.50 C169.13,226.03 168.97,226.34 169.61,229.81 C169.98,231.84 170.67,233.65 171.14,233.83 C172.83,234.49 171.94,236.66 168.70,239.80 ZM 159.46 237.07 C159.99,237.60 160.89,237.87 161.46,237.68 C163.35,237.05 163.17,234.04 161.09,231.38 C159.10,228.86 159.09,228.65 160.76,225.83 C162.67,222.60 167.05,220.00 170.59,220.00 C171.85,220.00 173.16,219.55 173.50,219.00 C174.57,217.27 186.11,217.79 188.17,219.65 C190.55,221.81 190.48,223.91 187.86,228.82 C185.15,233.89 185.87,236.00 190.32,236.00 C196.44,236.00 200.44,232.18 205.00,222.00 C205.37,221.18 206.45,216.45 207.42,211.50 C208.38,206.55 209.58,201.72 210.08,200.76 C210.59,199.81 211.00,198.15 211.00,197.07 C211.00,196.00 211.40,194.87 211.89,194.57 C212.38,194.27 213.03,192.55 213.34,190.76 C214.66,183.13 215.29,180.44 216.00,179.50 C216.41,178.95 217.07,173.89 217.46,168.25 L 218.16 158.00 L 214.56 158.00 C208.91,158.00 203.19,155.78 199.79,152.28 C196.98,149.38 196.78,148.78 197.83,146.48 C199.26,143.33 199.36,137.34 198.00,136.50 C197.45,136.16 197.00,134.59 197.00,133.00 C197.00,131.41 196.62,129.88 196.15,129.59 C195.68,129.30 194.48,126.49 193.49,123.34 C191.24,116.17 187.26,110.90 175.50,99.50 C165.49,89.80 159.79,85.00 158.27,85.00 C157.74,85.00 156.50,84.10 155.50,83.00 C154.50,81.90 153.23,81.00 152.67,81.00 C152.11,81.00 150.95,80.36 150.08,79.57 C148.23,77.91 130.47,68.89 128.44,68.59 C127.68,68.48 126.74,68.08 126.36,67.70 C125.98,67.31 123.97,67.00 121.89,67.00 C119.82,67.00 117.84,66.55 117.50,66.00 C116.69,64.70 106.31,64.70 105.50,66.00 C105.16,66.55 103.81,67.00 102.50,67.00 C101.19,67.00 99.83,67.47 99.47,68.05 C99.11,68.63 98.31,68.94 97.70,68.73 C97.08,68.53 94.08,69.84 91.04,71.66 C87.99,73.48 82.36,76.55 78.52,78.49 C70.73,82.42 57.91,94.28 55.89,99.43 C55.22,101.12 53.69,103.62 52.47,105.00 C50.25,107.51 43.17,120.89 41.09,126.50 C40.47,128.15 39.96,130.62 39.94,132.00 C39.85,138.94 38.73,148.61 37.92,149.45 C36.68,150.74 36.74,163.72 38.00,164.50 C38.55,164.84 39.00,167.04 39.00,169.39 C39.00,171.74 39.34,174.00 39.75,174.42 C40.16,174.83 40.50,175.48 40.50,175.87 C40.50,176.25 41.35,178.58 42.39,181.03 C46.60,191.00 49.09,195.77 51.00,197.50 C52.10,198.49 53.00,199.79 53.00,200.38 C53.00,201.79 64.13,213.00 65.53,213.00 C66.13,213.00 67.95,214.39 69.56,216.09 C73.05,219.76 83.31,225.30 87.39,225.71 C90.27,226.00 90.27,225.99 89.64,221.42 C88.81,215.34 88.51,215.00 84.09,215.00 C79.72,215.00 73.72,212.34 74.28,210.65 C74.54,209.89 77.27,209.57 82.30,209.70 C89.65,209.90 90.01,209.80 91.97,207.05 C93.08,205.48 94.00,203.84 94.00,203.40 C94.00,201.64 99.53,197.00 101.63,197.00 C104.99,197.00 105.25,198.42 102.36,201.10 C100.95,202.42 99.39,204.40 98.90,205.50 C98.41,206.60 97.62,208.18 97.16,209.00 C93.70,215.12 93.23,217.58 94.92,220.76 C95.42,221.72 96.35,223.90 96.98,225.62 C97.62,227.34 99.25,229.25 100.61,229.87 C103.68,231.27 120.65,231.37 121.50,230.00 C121.84,229.45 123.17,229.00 124.45,229.00 C127.23,229.00 139.36,223.48 141.05,221.44 C141.71,220.65 142.81,220.00 143.50,220.00 C144.19,220.00 145.32,219.32 146.00,218.50 C147.69,216.46 150.34,216.61 152.37,218.86 C153.87,220.51 153.89,220.85 152.53,221.98 C151.69,222.68 151.00,223.80 151.00,224.47 C151.00,225.14 150.08,226.52 148.95,227.54 C147.56,228.81 147.00,230.37 147.20,232.45 C147.49,235.40 147.68,235.51 153.00,235.81 C156.02,235.98 158.93,236.54 159.46,237.07 ZM 241.50 228.00 C241.84,228.55 243.64,229.00 245.50,229.00 C247.36,229.00 249.16,228.55 249.50,228.00 C249.84,227.45 252.14,227.00 254.61,227.00 C260.02,227.00 265.80,224.40 264.11,222.71 C263.30,221.90 262.68,221.92 261.80,222.80 C260.05,224.55 253.95,224.27 251.83,222.35 C250.51,221.15 250.00,219.26 250.00,215.53 C250.00,210.98 250.35,210.12 252.96,208.19 C254.59,206.98 256.40,206.00 256.99,206.00 C257.58,206.00 258.34,205.21 258.68,204.25 C259.02,203.29 260.07,201.60 261.01,200.50 C263.92,197.10 266.40,188.66 265.45,185.40 C264.99,183.80 264.54,182.05 264.46,181.50 C264.14,179.36 262.07,175.16 261.00,174.50 C260.38,174.12 259.47,172.72 258.96,171.40 C258.46,170.08 257.43,169.00 256.68,169.00 C255.93,169.00 254.51,168.11 253.52,167.02 C252.54,165.94 251.39,165.26 250.97,165.52 C250.55,165.78 249.88,169.23 249.48,173.18 C249.09,177.13 247.91,181.87 246.88,183.71 C245.85,185.55 245.00,187.73 245.00,188.54 C245.00,189.36 244.55,190.92 244.00,192.01 L 242.00 195.99 C241.45,197.08 241.00,198.64 241.00,199.45 C241.00,200.87 240.35,202.57 236.40,211.50 C234.29,216.25 233.63,223.85 235.16,225.69 C235.76,226.41 237.29,227.00 238.56,227.00 C239.84,227.00 241.16,227.45 241.50,228.00 ZM 270.50 167.13 C270.78,167.29 271.05,167.44 271.31,167.58 C274.18,169.14 275.41,169.81 276.59,169.72 C277.60,169.65 278.56,169.01 280.44,167.90 C283.92,165.85 284.00,165.67 284.00,159.46 C284.00,155.97 283.60,152.87 283.12,152.57 C282.63,152.27 282.00,150.78 281.71,149.26 C280.54,143.07 275.34,133.19 271.64,130.11 C270.22,128.94 270.00,129.01 270.03,130.63 C270.05,131.66 270.72,133.37 271.53,134.44 C272.34,135.51 273.00,137.39 273.00,138.63 C273.00,139.87 273.45,141.16 274.00,141.50 C274.55,141.84 275.00,143.86 275.00,146.00 C275.00,148.14 275.45,150.16 276.00,150.50 C277.62,151.50 277.24,163.56 275.54,164.96 C273.01,167.07 272.00,165.09 272.00,158.00 C272.00,154.21 271.55,150.84 271.00,150.50 C270.45,150.16 270.00,148.14 270.00,146.00 C270.00,143.86 269.55,141.84 269.00,141.50 C268.45,141.16 268.00,140.22 268.00,139.41 C268.00,138.60 266.42,134.69 264.50,130.72 C262.58,126.75 261.00,123.08 261.00,122.57 C261.00,121.11 256.81,117.00 255.33,117.00 C253.85,117.00 253.51,119.58 254.87,120.42 C255.35,120.72 255.95,124.81 256.20,129.50 C256.44,134.20 257.17,138.57 257.82,139.22 C258.47,139.87 259.00,141.41 259.00,142.64 C259.00,143.87 259.45,145.16 260.00,145.50 C260.55,145.84 261.00,147.86 261.00,150.00 C261.00,152.14 261.45,154.16 262.00,154.50 C263.34,155.33 263.27,159.33 261.89,160.71 C261.08,161.52 261.42,162.16 263.14,163.12 C264.44,163.83 267.75,165.64 270.50,167.13 ZM 122.00 166.50 C122.00,167.19 121.33,168.31 120.51,168.99 C119.28,170.02 118.49,169.66 115.96,166.96 C114.26,165.14 112.99,162.75 113.10,161.59 C113.21,160.44 112.95,158.68 112.52,157.69 C111.63,155.63 112.63,143.74 113.90,141.18 C114.36,140.26 115.69,137.37 116.85,134.77 L 118.95 130.05 L 115.48 127.27 C113.36,125.58 112.00,123.62 112.00,122.25 C112.00,119.39 112.72,119.43 118.28,122.53 L 122.81 125.07 L 126.55 122.53 C128.60,121.14 131.54,120.00 133.08,120.00 C136.85,120.00 137.26,118.95 134.95,115.16 C132.27,110.75 132.39,107.99 135.25,108.03 C136.95,108.05 138.15,109.33 140.13,113.25 C141.57,116.11 143.37,118.76 144.13,119.16 C144.88,119.55 147.84,120.91 150.71,122.19 C156.01,124.54 156.89,125.71 154.88,127.72 C153.80,128.80 150.92,127.99 144.76,124.88 C142.40,123.69 136.26,123.77 135.50,125.00 C135.16,125.55 133.80,126.00 132.48,126.00 C129.51,126.00 123.51,131.12 121.51,135.36 C118.53,141.66 116.22,155.62 117.89,157.29 C118.50,157.90 119.00,159.38 119.00,160.58 C119.00,161.78 119.68,163.32 120.50,164.00 C121.32,164.68 122.00,165.81 122.00,166.50 ZM 218.00 147.06 C218.00,148.68 218.45,150.00 219.00,150.00 C219.59,150.00 220.00,146.52 220.00,141.56 C220.00,136.92 220.45,132.84 221.00,132.50 C222.43,131.62 222.24,115.90 220.76,112.77 C219.61,110.33 219.18,110.19 214.51,110.70 C211.76,111.01 209.07,111.65 208.55,112.13 C208.03,112.61 206.12,113.00 204.30,113.00 C202.49,113.00 201.00,113.36 201.00,113.80 C201.00,114.25 202.60,116.16 204.56,118.05 C209.08,122.43 214.72,132.98 215.58,138.65 C215.94,141.06 216.63,143.27 217.12,143.57 C217.60,143.87 218.00,145.44 218.00,147.06 ZM 206.25 150.99 C210.43,152.70 212.47,151.81 212.82,148.12 C213.00,146.27 212.66,144.26 212.07,143.67 C211.48,143.08 211.00,141.59 211.00,140.36 C211.00,139.13 210.55,137.84 210.00,137.50 C209.45,137.16 209.00,136.21 209.00,135.39 C209.00,132.60 205.18,125.52 202.08,122.56 L 199.00 119.63 L 199.04 122.06 C199.05,123.40 199.71,125.62 200.50,127.00 C201.29,128.38 201.95,130.94 201.96,132.69 C201.98,134.45 202.45,136.16 203.00,136.50 C203.55,136.84 204.00,140.03 204.00,143.59 C204.00,149.36 204.24,150.16 206.25,150.99 ZM 108.69 148.56 C106.79,150.22 104.68,151.00 102.11,151.00 C97.71,151.00 97.00,150.49 97.00,147.33 C97.00,145.33 97.50,145.00 100.57,145.00 C102.53,145.00 105.05,144.51 106.18,143.90 C107.80,143.04 108.58,143.16 109.87,144.47 C111.38,146.00 111.29,146.30 108.69,148.56 ZM 94.30 192.79 C96.96,195.56 96.98,195.70 95.18,197.33 C93.44,198.92 93.22,198.90 91.51,197.01 C90.51,195.90 89.05,195.00 88.28,195.00 C87.38,195.00 86.98,194.17 87.18,192.75 C87.66,189.40 91.07,189.42 94.30,192.79 ZM 253.75 157.92 C254.71,158.48 255.80,158.95 256.17,158.97 C257.60,159.03 257.66,156.37 256.29,153.66 C254.93,150.97 254.78,150.92 253.46,152.66 C251.57,155.15 251.66,156.70 253.75,157.92 Z" fill="rgb(4,4,4)"/>
<path d="M 218.00 147.06 C218.00,145.44 217.60,143.87 217.12,143.57 C216.63,143.27 215.94,141.06 215.58,138.65 C215.50,138.18 215.40,137.66 215.26,137.12 C215.43,137.68 215.67,138.28 215.93,138.76 C216.44,139.72 217.22,141.40 217.66,142.50 C218.23,143.90 218.57,142.62 218.78,138.20 C219.00,133.84 219.54,131.73 220.55,131.34 C221.33,131.04 221.81,128.43 221.97,125.21 C221.94,128.94 221.62,132.12 221.00,132.50 C220.45,132.84 220.00,136.92 220.00,141.56 C220.00,146.52 219.59,150.00 219.00,150.00 C218.45,150.00 218.00,148.68 218.00,147.06 ZM 215.12 136.57 C214.34,133.78 212.82,130.34 211.02,127.09 C213.23,130.81 215.00,134.45 215.00,135.73 C215.00,135.96 215.04,136.25 215.12,136.57 Z" fill="rgb(167,167,167)"/>
<path d="M 0.00 155.00 L 0.00 0.00 L 155.00 0.00 L 310.00 0.00 L 310.00 155.00 L 310.00 310.00 L 155.00 310.00 L 0.00 310.00 L 0.00 155.00 ZM 168.70 239.80 C171.94,236.66 172.83,234.49 171.14,233.83 C170.67,233.65 169.98,231.84 169.61,229.81 C168.97,226.34 169.13,226.03 172.37,224.50 C174.27,223.59 177.51,223.01 179.65,223.18 C183.11,223.47 183.47,223.75 183.16,226.00 C182.98,227.38 182.42,228.93 181.91,229.45 C180.58,230.83 180.79,238.39 182.20,239.80 C183.65,241.25 191.16,241.36 196.03,240.01 C199.94,238.92 206.61,232.62 207.17,229.50 C207.47,227.79 208.59,227.40 215.01,226.81 C219.13,226.44 224.18,225.83 226.23,225.46 C229.55,224.86 230.07,225.05 230.88,227.18 C232.08,230.35 233.76,231.60 238.00,232.48 C245.35,234.00 258.14,232.64 263.60,229.74 C268.11,227.36 270.61,223.21 269.05,220.71 C268.18,219.31 268.14,218.46 268.92,217.68 C271.55,215.05 268.40,208.46 264.88,209.21 C262.97,209.61 263.57,205.14 265.78,202.54 C269.39,198.27 270.13,195.74 270.15,187.60 C270.17,181.10 269.74,178.59 268.10,175.68 C266.09,172.10 266.09,172.00 267.96,172.00 C269.02,172.00 270.12,172.39 270.42,172.87 C271.32,174.32 276.63,174.97 279.92,174.02 C281.62,173.53 284.37,171.79 286.01,170.14 C288.76,167.39 289.00,166.60 289.00,160.14 C289.00,156.28 288.55,152.84 288.00,152.50 C287.45,152.16 287.00,150.55 287.00,148.92 C287.00,145.42 280.14,131.33 277.11,128.60 C275.95,127.55 275.00,126.22 275.00,125.65 C275.00,124.21 269.88,119.00 268.47,119.00 C267.83,119.00 266.50,118.10 265.50,117.00 C264.50,115.90 263.29,115.00 262.80,115.00 C262.32,115.00 260.70,114.16 259.21,113.14 C257.72,112.12 255.38,110.53 254.00,109.61 C252.62,108.69 249.97,106.82 248.10,105.47 C245.44,103.54 243.48,103.00 239.05,103.00 C235.94,103.00 232.86,102.46 232.20,101.80 C231.27,100.87 230.73,100.87 229.80,101.80 C229.14,102.46 226.50,103.00 223.92,103.00 C220.98,103.00 218.78,103.56 218.00,104.50 C217.13,105.54 214.83,106.00 210.44,106.00 C206.96,106.00 203.84,106.45 203.50,107.00 C203.16,107.55 201.80,108.00 200.49,108.00 C199.17,108.00 196.93,108.53 195.52,109.17 C193.05,110.30 192.37,109.79 179.72,97.42 C172.45,90.32 165.42,83.82 164.11,83.00 C162.80,82.18 160.36,80.38 158.69,79.02 C157.02,77.65 153.97,75.63 151.92,74.52 C149.86,73.41 144.20,70.33 139.34,67.68 C131.37,63.34 129.69,62.81 122.22,62.29 C117.67,61.97 113.70,61.33 113.41,60.86 C112.67,59.66 106.25,59.78 105.50,61.00 C105.16,61.55 103.67,62.02 102.19,62.04 C98.15,62.11 92.76,64.30 86.64,68.36 C83.63,70.36 80.91,72.00 80.61,72.00 C80.31,72.00 77.67,73.09 74.75,74.43 C67.89,77.57 50.00,95.99 50.00,99.92 C50.00,100.38 49.28,101.35 48.40,102.09 C47.51,102.82 46.38,104.34 45.88,105.46 C45.37,106.58 43.65,109.53 42.06,112.00 C40.46,114.47 39.12,117.49 39.08,118.69 C39.04,119.90 38.60,121.13 38.12,121.43 C36.37,122.51 33.95,135.06 34.03,142.66 C34.07,146.05 33.63,149.11 33.05,149.47 C31.67,150.32 31.68,164.68 33.06,165.54 C33.65,165.90 34.05,167.39 33.94,168.85 C33.71,172.20 34.98,177.87 36.13,178.58 C36.61,178.88 37.00,179.89 37.00,180.84 C37.00,182.79 44.41,197.68 46.57,200.08 C47.36,200.95 48.00,202.08 48.00,202.60 C48.00,203.90 62.29,218.00 63.60,218.00 C64.18,218.00 65.64,219.05 66.84,220.33 C69.91,223.60 90.23,233.21 96.38,234.30 C104.81,235.79 120.13,236.27 121.33,235.07 C121.92,234.48 123.77,233.99 125.45,233.97 C127.13,233.95 129.37,233.28 130.44,232.47 C131.51,231.66 133.31,230.99 134.44,230.97 C135.57,230.95 137.37,230.28 138.44,229.47 C141.45,227.20 142.00,227.66 142.00,232.43 C142.00,238.60 145.10,241.00 153.08,241.00 C156.27,241.00 159.16,241.45 159.50,242.00 C160.79,244.08 165.43,242.98 168.70,239.80 ZM 159.46 237.07 C158.93,236.54 156.02,235.98 153.00,235.81 C147.68,235.51 147.49,235.40 147.20,232.45 C147.00,230.37 147.56,228.81 148.95,227.54 C150.08,226.52 151.00,225.14 151.00,224.47 C151.00,223.80 151.69,222.68 152.53,221.98 C153.89,220.85 153.87,220.51 152.37,218.86 C150.34,216.61 147.69,216.46 146.00,218.50 C145.32,219.32 144.19,220.00 143.50,220.00 C142.81,220.00 141.71,220.65 141.05,221.44 C139.36,223.48 127.23,229.00 124.45,229.00 C123.17,229.00 121.84,229.45 121.50,230.00 C120.65,231.37 103.68,231.27 100.61,229.87 C99.25,229.25 97.62,227.34 96.98,225.62 C96.35,223.90 95.42,221.72 94.92,220.76 C93.23,217.58 93.70,215.12 97.16,209.00 C97.62,208.18 98.41,206.60 98.90,205.50 C99.39,204.40 100.95,202.42 102.36,201.10 C105.25,198.42 104.99,197.00 101.63,197.00 C99.53,197.00 94.00,201.64 94.00,203.40 C94.00,203.84 93.08,205.48 91.97,207.05 C90.01,209.80 89.65,209.90 82.30,209.70 C77.27,209.57 74.54,209.89 74.28,210.65 C73.72,212.34 79.72,215.00 84.09,215.00 C88.51,215.00 88.81,215.34 89.64,221.42 C90.27,225.99 90.27,226.00 87.39,225.71 C83.31,225.30 73.05,219.76 69.56,216.09 C67.95,214.39 66.13,213.00 65.53,213.00 C64.13,213.00 53.00,201.79 53.00,200.38 C53.00,199.79 52.10,198.49 51.00,197.50 C49.09,195.77 46.60,191.00 42.39,181.03 C41.35,178.58 40.50,176.25 40.50,175.87 C40.50,175.48 40.16,174.83 39.75,174.42 C39.34,174.00 39.00,171.74 39.00,169.39 C39.00,167.04 38.55,164.84 38.00,164.50 C36.74,163.72 36.68,150.74 37.92,149.45 C38.73,148.61 39.85,138.94 39.94,132.00 C39.96,130.62 40.47,128.15 41.09,126.50 C43.17,120.89 50.25,107.51 52.47,105.00 C53.69,103.62 55.22,101.12 55.89,99.43 C57.91,94.28 70.73,82.42 78.52,78.49 C82.36,76.55 87.99,73.48 91.04,71.66 C94.08,69.84 97.08,68.53 97.70,68.73 C98.31,68.94 99.11,68.63 99.47,68.05 C99.83,67.47 101.19,67.00 102.50,67.00 C103.81,67.00 105.16,66.55 105.50,66.00 C106.31,64.70 116.69,64.70 117.50,66.00 C117.84,66.55 119.82,67.00 121.89,67.00 C123.97,67.00 125.98,67.31 126.36,67.70 C126.74,68.08 127.68,68.48 128.44,68.59 C130.47,68.89 148.23,77.91 150.08,79.57 C150.95,80.36 152.11,81.00 152.67,81.00 C153.23,81.00 154.50,81.90 155.50,83.00 C156.50,84.10 157.74,85.00 158.27,85.00 C159.79,85.00 165.49,89.80 175.50,99.50 C187.26,110.90 191.24,116.17 193.49,123.34 C194.48,126.49 195.68,129.30 196.15,129.59 C196.62,129.88 197.00,131.41 197.00,133.00 C197.00,134.59 197.45,136.16 198.00,136.50 C199.36,137.34 199.26,143.33 197.83,146.48 C196.78,148.78 196.98,149.38 199.79,152.28 C203.19,155.78 208.91,158.00 214.56,158.00 L 218.16 158.00 L 217.46 168.25 C217.07,173.89 216.41,178.95 216.00,179.50 C215.29,180.44 214.66,183.13 213.34,190.76 C213.03,192.55 212.38,194.27 211.89,194.57 C211.40,194.87 211.00,196.00 211.00,197.07 C211.00,198.15 210.59,199.81 210.08,200.76 C209.58,201.72 208.38,206.55 207.42,211.50 C206.45,216.45 205.37,221.18 205.00,222.00 C200.44,232.18 196.44,236.00 190.32,236.00 C185.87,236.00 185.15,233.89 187.86,228.82 C190.48,223.91 190.55,221.81 188.17,219.65 C186.11,217.79 174.57,217.27 173.50,219.00 C173.16,219.55 171.85,220.00 170.59,220.00 C167.05,220.00 162.67,222.60 160.76,225.83 C159.09,228.65 159.10,228.86 161.09,231.38 C163.17,234.04 163.35,237.05 161.46,237.68 C160.89,237.87 159.99,237.60 159.46,237.07 ZM 94.30 192.79 C91.07,189.42 87.66,189.40 87.18,192.75 C86.98,194.17 87.38,195.00 88.28,195.00 C89.05,195.00 90.51,195.90 91.51,197.01 C93.22,198.90 93.44,198.92 95.18,197.33 C96.98,195.70 96.96,195.56 94.30,192.79 ZM 122.00 166.50 C122.00,165.81 121.32,164.68 120.50,164.00 C119.68,163.32 119.00,161.78 119.00,160.58 C119.00,159.38 118.50,157.90 117.89,157.29 C116.22,155.62 118.53,141.66 121.51,135.36 C123.51,131.12 129.51,126.00 132.48,126.00 C133.80,126.00 135.16,125.55 135.50,125.00 C136.26,123.77 142.40,123.69 144.76,124.88 C150.92,127.99 153.80,128.80 154.88,127.72 C156.89,125.71 156.01,124.54 150.71,122.19 C147.84,120.91 144.88,119.55 144.13,119.16 C143.37,118.76 141.57,116.11 140.13,113.25 C138.15,109.33 136.95,108.05 135.25,108.03 C132.39,107.99 132.27,110.75 134.95,115.16 C137.26,118.95 136.85,120.00 133.08,120.00 C131.54,120.00 128.60,121.14 126.55,122.53 L 122.81 125.07 L 118.28 122.53 C112.72,119.43 112.00,119.39 112.00,122.25 C112.00,123.62 113.36,125.58 115.48,127.27 L 118.95 130.05 L 116.85 134.77 C115.69,137.37 114.36,140.26 113.90,141.18 C112.63,143.74 111.63,155.63 112.52,157.69 C112.95,158.68 113.21,160.44 113.10,161.59 C112.99,162.75 114.26,165.14 115.96,166.96 C118.49,169.66 119.28,170.02 120.51,168.99 C121.33,168.31 122.00,167.19 122.00,166.50 ZM 108.69 148.56 C111.29,146.30 111.38,146.00 109.87,144.47 C108.58,143.16 107.80,143.04 106.18,143.90 C105.05,144.51 102.53,145.00 100.57,145.00 C97.50,145.00 97.00,145.33 97.00,147.33 C97.00,150.49 97.71,151.00 102.11,151.00 C104.68,151.00 106.79,150.22 108.69,148.56 ZM 241.50 228.00 C241.16,227.45 239.84,227.00 238.56,227.00 C237.29,227.00 235.76,226.41 235.16,225.69 C233.63,223.85 234.29,216.25 236.40,211.50 C240.35,202.57 241.00,200.87 241.00,199.45 C241.00,198.64 241.45,197.08 242.00,195.99 C242.55,194.89 243.45,193.11 244.00,192.01 C244.55,190.92 245.00,189.36 245.00,188.54 C245.00,187.73 245.85,185.55 246.88,183.71 C247.91,181.87 249.09,177.13 249.48,173.18 C249.88,169.23 250.55,165.78 250.97,165.52 C251.39,165.26 252.54,165.94 253.52,167.02 C254.51,168.11 255.93,169.00 256.68,169.00 C257.43,169.00 258.46,170.08 258.96,171.40 C259.47,172.72 260.38,174.12 261.00,174.50 C262.07,175.16 264.14,179.36 264.46,181.50 C264.54,182.05 264.99,183.80 265.45,185.40 C266.40,188.66 263.92,197.10 261.01,200.50 C260.07,201.60 259.02,203.29 258.68,204.25 C258.34,205.21 257.58,206.00 256.99,206.00 C256.40,206.00 254.59,206.98 252.96,208.19 C250.35,210.12 250.00,210.98 250.00,215.53 C250.00,219.26 250.51,221.15 251.83,222.35 C253.95,224.27 260.05,224.55 261.80,222.80 C262.68,221.92 263.30,221.90 264.11,222.71 C265.80,224.40 260.02,227.00 254.61,227.00 C252.14,227.00 249.84,227.45 249.50,228.00 C249.16,228.55 247.36,229.00 245.50,229.00 C243.64,229.00 241.84,228.55 241.50,228.00 ZM 270.50 167.13 C267.75,165.64 264.44,163.83 263.14,163.12 C261.42,162.16 261.08,161.52 261.89,160.71 C263.27,159.33 263.34,155.33 262.00,154.50 C261.45,154.16 261.00,152.14 261.00,150.00 C261.00,147.86 260.55,145.84 260.00,145.50 C259.45,145.16 259.00,143.87 259.00,142.64 C259.00,141.41 258.47,139.87 257.82,139.22 C257.17,138.57 256.44,134.20 256.20,129.50 C255.95,124.81 255.35,120.72 254.87,120.42 C253.51,119.58 253.85,117.00 255.33,117.00 C256.81,117.00 261.00,121.11 261.00,122.57 C261.00,123.08 262.58,126.75 264.50,130.72 C266.42,134.69 268.00,138.60 268.00,139.41 C268.00,140.22 268.45,141.16 269.00,141.50 C269.55,141.84 270.00,143.86 270.00,146.00 C270.00,148.14 270.45,150.16 271.00,150.50 C271.55,150.84 272.00,154.21 272.00,158.00 C272.00,165.09 273.01,167.07 275.54,164.96 C277.24,163.56 277.62,151.50 276.00,150.50 C275.45,150.16 275.00,148.14 275.00,146.00 C275.00,143.86 274.55,141.84 274.00,141.50 C273.45,141.16 273.00,139.87 273.00,138.63 C273.00,137.39 272.34,135.51 271.53,134.44 C270.72,133.37 270.05,131.66 270.03,130.63 C270.00,129.01 270.22,128.94 271.64,130.11 C275.34,133.19 280.54,143.07 281.71,149.26 C282.00,150.78 282.63,152.27 283.12,152.57 C283.60,152.87 284.00,155.97 284.00,159.46 C284.00,165.67 283.92,165.85 280.44,167.90 C276.14,170.44 276.65,170.48 270.50,167.13 ZM 253.75 157.92 C251.66,156.70 251.57,155.15 253.46,152.66 C254.78,150.92 254.93,150.97 256.29,153.66 C257.66,156.37 257.60,159.03 256.17,158.97 C255.80,158.95 254.71,158.48 253.75,157.92 ZM 206.25 150.99 C204.24,150.16 204.00,149.36 204.00,143.59 C204.00,140.03 203.55,136.84 203.00,136.50 C202.45,136.16 201.98,134.45 201.96,132.69 C201.95,130.94 201.29,128.38 200.50,127.00 C199.71,125.62 199.05,123.40 199.04,122.06 L 199.00 119.63 L 202.08 122.56 C205.18,125.52 209.00,132.60 209.00,135.39 C209.00,136.21 209.45,137.16 210.00,137.50 C210.55,137.84 211.00,139.13 211.00,140.36 C211.00,141.59 211.48,143.08 212.07,143.67 C212.66,144.26 213.00,146.27 212.82,148.12 C212.47,151.81 210.43,152.70 206.25,150.99 ZM 217.66 142.50 C217.22,141.40 216.44,139.72 215.93,138.76 C215.42,137.81 215.00,136.44 215.00,135.73 C215.00,133.19 208.06,121.44 204.56,118.05 C202.60,116.16 201.00,114.25 201.00,113.80 C201.00,113.36 202.49,113.00 204.30,113.00 C206.12,113.00 208.03,112.61 208.55,112.13 C209.07,111.65 211.76,111.01 214.51,110.70 C219.18,110.19 219.61,110.33 220.76,112.77 C222.57,116.61 222.41,130.63 220.55,131.34 C219.54,131.73 219.00,133.84 218.78,138.20 C218.57,142.62 218.23,143.90 217.66,142.50 Z" fill="rgb(254,254,254)"/>
</g>
</svg>